<svg width="24" height="24" viewBox="0 0 24 24" 
     xmlns="http://www.w3.org/2000/svg"
     stroke="currentColor"
     fill="none"
     stroke-width="1.8"
     stroke-linecap="round"
     stroke-linejoin="round">

  <!-- file -->
  <path d="M7 3h7l3 3v13a2 2 0 0 1-2 2H7a2 2 0 0 1-2-2V5a2 2 0 0 1 2-2z"/>
  
  <!-- fold -->
  <path d="M14 3v3h3"/>

  <!-- env lines -->
  <line x1="8" y1="10" x2="16" y2="10"/>
  <line x1="8" y1="13" x2="16" y2="13"/>

  <!-- sync arrows -->
  <path d="M9 17a4 4 0 0 0 6 0"/>
  <polyline points="13.5,16 15,17 13.5,18"/>

  <path d="M15 7a4 4 0 0 0-6 0"/>
  <polyline points="10.5,8 9,7 10.5,6"/>

</svg>